<svg id="Layer_1" data-name="Layer 1" xmlns="http://www.w3.org/2000/svg" viewBox="0 0 334.39 67.71"><defs><style>.cls-1{fill:#fff;}.cls-2{fill:#ccc;}</style></defs><title>ClearViewFM-Logo-RGB-REV-ALT</title><path class="cls-1" d="M75.08,37.08A32,32,0,0,0,59.33,9.51,35.12,35.12,0,0,0,32.57,11a35.61,35.61,0,0,0-8.31,50.36q2.28,1.14,4.74,2.14a86.52,86.52,0,0,0,20.37,5A32.07,32.07,0,0,0,75.08,37.08Zm-32,24.29a25,25,0,1,1,24.77-25A24.89,24.89,0,0,1,43.05,61.37Z" transform="translate(-3.06 -1.63)"/><path class="cls-1" d="M14.41,53.87c.22.68.49,1.35.76,2,.37.28.75.55,1.13.82A33.32,33.32,0,0,1,14.41,53.87Z" transform="translate(-3.06 -1.63)"/><path class="cls-1" d="M53,4.58c-.89,0-1.77,0-2.63.11a33.11,33.11,0,0,1,9.44,3.73A36.33,36.33,0,0,1,73.48,68.5l1.7-.29A35.67,35.67,0,0,0,53,4.58Z" transform="translate(-3.06 -1.63)"/><path class="cls-1" d="M11,37.08a31.72,31.72,0,0,0,.41,5.1A36.45,36.45,0,0,1,32,10,36.88,36.88,0,0,1,42,5.08a31.8,31.8,0,0,0-6.87,1C33.78,6.58,32.4,7.15,31,7.77c-2.19,1-4.23,2-6.14,3A32,32,0,0,0,11,37.08Z" transform="translate(-3.06 -1.63)"/><path class="cls-1" d="M83,42.77A35.21,35.21,0,0,0,64.6,11.84a33.18,33.18,0,0,1-11.89,57,85.76,85.76,0,0,0,18.75-.07A35.09,35.09,0,0,0,83,42.77Z" transform="translate(-3.06 -1.63)"/><path class="cls-1" d="M96.09,34.63C93.67,26.83,80.81-7.43,41.49,3.9c.52,0,1,0,1.56,0,1.09,0,2.16.06,3.22.16A37.3,37.3,0,0,1,53,3.4a36.83,36.83,0,0,1,24.6,64.28C91.87,64.23,101.84,54.84,96.09,34.63Z" transform="translate(-3.06 -1.63)"/><path class="cls-1" d="M11.88,48.57A33.15,33.15,0,0,1,19.18,14C-2.31,27.69-.29,43.2,13.36,54.47A36.12,36.12,0,0,1,11.88,48.57Z" transform="translate(-3.06 -1.63)"/><path class="cls-1" d="M38.94,7.48A36.15,36.15,0,0,1,53.6,6.85a30.84,30.84,0,0,0-7.27-1.63A35.37,35.37,0,0,0,38.94,7.48Z" transform="translate(-3.06 -1.63)"/><path class="cls-1" d="M12.6,42.77A35.21,35.21,0,0,0,13,48.24a32,32,0,0,0,6.6,10.63c.77.46,1.56.92,2.38,1.36a36.76,36.76,0,0,1,4.12-45.17A35.15,35.15,0,0,0,12.6,42.77Z" transform="translate(-3.06 -1.63)"/><path class="cls-1" d="M135.66,10l-4.52,4.31c-3.08-3.25-6.53-4.88-10.38-4.88a11.39,11.39,0,0,0-11.53,11.53,12.14,12.14,0,0,0,1.48,6,10.58,10.58,0,0,0,4.17,4.14,12.14,12.14,0,0,0,6,1.5A12.37,12.37,0,0,0,126,31.56a18.45,18.45,0,0,0,5.12-3.83l4.38,4.57a24.16,24.16,0,0,1-7.11,5.1,19.53,19.53,0,0,1-7.64,1.42,17.64,17.64,0,0,1-13-5,17.4,17.4,0,0,1-5-12.87,17.62,17.62,0,0,1,2.3-9,17,17,0,0,1,6.58-6.35,18.52,18.52,0,0,1,9.22-2.4A19.56,19.56,0,0,1,135.66,10Z" transform="translate(-3.06 -1.63)"/><path class="cls-1" d="M139.93,3.16h6.3V38h-6.3Z" transform="translate(-3.06 -1.63)"/><path class="cls-1" d="M177.11,27.23H156.87a6.73,6.73,0,0,0,2.34,4.26,7.38,7.38,0,0,0,4.86,1.58,8.41,8.41,0,0,0,6.07-2.47l5.31,2.49a12.55,12.55,0,0,1-4.76,4.17,14.89,14.89,0,0,1-6.58,1.35,13,13,0,0,1-9.62-3.73,12.67,12.67,0,0,1-3.72-9.33A13.11,13.11,0,0,1,154.48,16a12.43,12.43,0,0,1,9.29-3.79A12.88,12.88,0,0,1,173.41,16a13.72,13.72,0,0,1,3.72,10Zm-6.3-5a6.35,6.35,0,0,0-2.47-3.42,7.15,7.15,0,0,0-4.26-1.31A7.54,7.54,0,0,0,159.46,19a8.19,8.19,0,0,0-2.32,3.26Z" transform="translate(-3.06 -1.63)"/><path class="cls-1" d="M200.74,12.85H207V38h-6.3V35.31a12.18,12.18,0,0,1-3.7,2.52,10.29,10.29,0,0,1-4,.78,11.17,11.17,0,0,1-8.42-3.78,13.18,13.18,0,0,1-3.55-9.38,13.5,13.5,0,0,1,3.44-9.53,10.92,10.92,0,0,1,8.34-3.71,10.56,10.56,0,0,1,4.24.85,11.46,11.46,0,0,1,3.67,2.56ZM194.12,18a6.37,6.37,0,0,0-4.86,2.07,7.41,7.41,0,0,0-1.93,5.29,7.54,7.54,0,0,0,2,5.36,6.36,6.36,0,0,0,4.84,2.1,6.47,6.47,0,0,0,4.92-2.07,7.55,7.55,0,0,0,2-5.41,7.37,7.37,0,0,0-2-5.31A6.57,6.57,0,0,0,194.12,18Z" transform="translate(-3.06 -1.63)"/><path class="cls-1" d="M211.93,12.85h5.4V16a6.75,6.75,0,0,1,2.33-2.83,5.6,5.6,0,0,1,3.19-1,5.89,5.89,0,0,1,2.56.64l-2,5.43a4.37,4.37,0,0,0-1.82-.56,2.89,2.89,0,0,0-2.46,1.8c-.67,1.2-1,3.56-1,7.06l0,1.23V38h-6.26Z" transform="translate(-3.06 -1.63)"/><path class="cls-2" d="M226.64,4h6.65l8.54,24.12L250.5,4h6.63L244.9,38h-6.23Z" transform="translate(-3.06 -1.63)"/><path class="cls-2" d="M264.08,2.51a3.86,3.86,0,0,1,2.84,1.2,4,4,0,0,1,1.18,2.91,3.94,3.94,0,0,1-1.17,2.87,3.78,3.78,0,0,1-2.81,1.19,3.84,3.84,0,0,1-2.86-1.21,4.06,4.06,0,0,1-1.19-2.94,3.84,3.84,0,0,1,1.18-2.84A3.86,3.86,0,0,1,264.08,2.51Zm-3.15,10.34h6.3V38h-6.3Z" transform="translate(-3.06 -1.63)"/><path class="cls-2" d="M298.11,27.23H277.87a6.73,6.73,0,0,0,2.34,4.26,7.38,7.38,0,0,0,4.86,1.58,8.41,8.41,0,0,0,6.07-2.47l5.31,2.49a12.55,12.55,0,0,1-4.76,4.17,14.89,14.89,0,0,1-6.58,1.35,13,13,0,0,1-9.62-3.73,12.67,12.67,0,0,1-3.72-9.33A13.11,13.11,0,0,1,275.48,16a12.43,12.43,0,0,1,9.29-3.79A12.92,12.92,0,0,1,294.42,16a13.76,13.76,0,0,1,3.71,10Zm-6.3-5a6.35,6.35,0,0,0-2.47-3.42,7.15,7.15,0,0,0-4.26-1.31A7.54,7.54,0,0,0,280.46,19a8.19,8.19,0,0,0-2.32,3.26Z" transform="translate(-3.06 -1.63)"/><path class="cls-2" d="M300.43,12.85h6.16l5.05,14.29,5.44-14.29h3.77L326.18,27l5.06-14.13h6.2L328.28,38h-4l-5.36-14.31L313.42,38h-3.95Z" transform="translate(-3.06 -1.63)"/><path class="cls-2" d="M107.91,46.6h10.63v2.08H110v6.65h8.51v2.08H110V67.82h-2.12Z" transform="translate(-3.06 -1.63)"/><path class="cls-2" d="M122.6,45.67a1.6,1.6,0,0,1,1.18.49,1.65,1.65,0,0,1,0,2.35,1.64,1.64,0,0,1-1.18.49,1.66,1.66,0,0,1-1.16-2.84A1.56,1.56,0,0,1,122.6,45.67Zm-1,6.46h2V67.82h-2Z" transform="translate(-3.06 -1.63)"/><path class="cls-2" d="M127.81,52.13h2v2.81a8.55,8.55,0,0,1,2.69-2.42,6.61,6.61,0,0,1,3.2-.8,5.54,5.54,0,0,1,3.12.9,5.27,5.27,0,0,1,2,2.41,12.56,12.56,0,0,1,.65,4.71v8.08h-2V60.33a18.63,18.63,0,0,0-.22-3.62,4,4,0,0,0-1.35-2.34,4.08,4.08,0,0,0-2.59-.79A5,5,0,0,0,132,54.8a5.67,5.67,0,0,0-1.91,3,20.93,20.93,0,0,0-.29,4.27v5.75h-2Z" transform="translate(-3.06 -1.63)"/><path class="cls-2" d="M161.47,52.13V67.82h-2v-2.7a8.75,8.75,0,0,1-2.85,2.33,8,8,0,0,1-9.15-1.64,8.11,8.11,0,0,1-2.36-5.88,8,8,0,0,1,2.38-5.8,7.8,7.8,0,0,1,5.73-2.41,7.41,7.41,0,0,1,3.5.83A8,8,0,0,1,159.48,55V52.13Zm-8.07,1.54A6.09,6.09,0,0,0,148,56.83a6.37,6.37,0,0,0-.84,3.17,6.47,6.47,0,0,0,.85,3.17,6.23,6.23,0,0,0,2.29,2.35,6,6,0,0,0,3.07.84,6.25,6.25,0,0,0,3.14-.83,5.92,5.92,0,0,0,2.29-2.26,6.51,6.51,0,0,0,.79-3.22,6.23,6.23,0,0,0-1.79-4.55A5.93,5.93,0,0,0,153.4,53.67Z" transform="translate(-3.06 -1.63)"/><path class="cls-2" d="M166,52.13h2v2.81a8.52,8.52,0,0,1,2.68-2.42,6.63,6.63,0,0,1,3.2-.8,5.55,5.55,0,0,1,3.13.9,5.27,5.27,0,0,1,2,2.41,12.77,12.77,0,0,1,.65,4.71v8.08h-2V60.33a18.37,18.37,0,0,0-.23-3.62,4,4,0,0,0-1.34-2.34,4.11,4.11,0,0,0-2.6-.79,5,5,0,0,0-3.28,1.22,5.55,5.55,0,0,0-1.91,3,20.21,20.21,0,0,0-.29,4.27v5.75h-2Z" transform="translate(-3.06 -1.63)"/><path class="cls-2" d="M199.26,55.39l-1.6,1A6.73,6.73,0,0,0,192,53.63a6.56,6.56,0,0,0-4.76,1.84A6,6,0,0,0,185.34,60a6.37,6.37,0,0,0,.87,3.23,6.13,6.13,0,0,0,2.39,2.35,7.26,7.26,0,0,0,9.06-1.92l1.6,1a7.53,7.53,0,0,1-3,2.63,9.65,9.65,0,0,1-4.31.94,8.53,8.53,0,0,1-6.18-2.37,7.73,7.73,0,0,1-2.45-5.76,8.15,8.15,0,0,1,1.15-4.23,8,8,0,0,1,3.15-3,9.18,9.18,0,0,1,4.48-1.1,9.53,9.53,0,0,1,3,.48,8.34,8.34,0,0,1,2.46,1.24A6.78,6.78,0,0,1,199.26,55.39Z" transform="translate(-3.06 -1.63)"/><path class="cls-2" d="M203.84,45.67a1.56,1.56,0,0,1,1.17.49A1.67,1.67,0,0,1,203.84,49a1.66,1.66,0,0,1-1.65-1.66,1.61,1.61,0,0,1,.48-1.18A1.59,1.59,0,0,1,203.84,45.67Zm-1,6.46h2V67.82h-2Z" transform="translate(-3.06 -1.63)"/><path class="cls-2" d="M224.69,52.13V67.82h-2v-2.7a8.75,8.75,0,0,1-2.85,2.33,8,8,0,0,1-9.15-1.64,8.11,8.11,0,0,1-2.36-5.88,8,8,0,0,1,2.38-5.8,7.8,7.8,0,0,1,5.73-2.41,7.41,7.41,0,0,1,3.5.83A8,8,0,0,1,222.7,55V52.13Zm-8.07,1.54a6.09,6.09,0,0,0-5.39,3.16,6.37,6.37,0,0,0-.84,3.17,6.47,6.47,0,0,0,.85,3.17,6.23,6.23,0,0,0,2.29,2.35,6,6,0,0,0,3.07.84,6.25,6.25,0,0,0,3.14-.83A5.92,5.92,0,0,0,222,63.27a6.52,6.52,0,0,0,.8-3.22A6.24,6.24,0,0,0,221,55.5,5.93,5.93,0,0,0,216.62,53.67Z" transform="translate(-3.06 -1.63)"/><path class="cls-2" d="M228.93,46.07h2V67.82h-2Z" transform="translate(-3.06 -1.63)"/><path class="cls-2" d="M242.69,67.82l3-21.22h.34L254.7,64l8.54-17.41h.34l3.05,21.22h-2.08l-2.09-15.17L255,67.82h-.54l-7.59-15.29-2.08,15.29Z" transform="translate(-3.06 -1.63)"/><path class="cls-2" d="M283.68,62.61l1.7.9a9.36,9.36,0,0,1-1.93,2.65A7.6,7.6,0,0,1,281,67.7a8.67,8.67,0,0,1-3.11.53,7.48,7.48,0,0,1-6-2.52A8.53,8.53,0,0,1,269.7,60a8.38,8.38,0,0,1,1.84-5.33,7.49,7.49,0,0,1,6.22-3,7.76,7.76,0,0,1,6.41,3.05,8.52,8.52,0,0,1,1.73,5.36H271.78a6.4,6.4,0,0,0,1.75,4.49,5.58,5.58,0,0,0,4.17,1.74A6.61,6.61,0,0,0,280,66,6.15,6.15,0,0,0,282,64.84,9.43,9.43,0,0,0,283.68,62.61Zm0-4.22a6.58,6.58,0,0,0-1.18-2.58,5.39,5.39,0,0,0-2-1.56,6.19,6.19,0,0,0-2.67-.59,5.74,5.74,0,0,0-4,1.48A6.73,6.73,0,0,0,272,58.39Z" transform="translate(-3.06 -1.63)"/><path class="cls-2" d="M305.33,46.07V67.82h-2v-2.7a8.75,8.75,0,0,1-2.85,2.33,7.94,7.94,0,0,1-9.14-1.64A8.07,8.07,0,0,1,289,59.93a8,8,0,0,1,2.38-5.8,7.78,7.78,0,0,1,5.72-2.41,7.38,7.38,0,0,1,3.5.83A7.88,7.88,0,0,1,303.34,55V46.07Zm-8.07,7.6a6.09,6.09,0,0,0-5.38,3.16,6.37,6.37,0,0,0,0,6.34,6.13,6.13,0,0,0,2.28,2.35,6,6,0,0,0,3.08.84,6.28,6.28,0,0,0,3.14-.83,5.83,5.83,0,0,0,2.28-2.26,6.52,6.52,0,0,0,.8-3.22,6.27,6.27,0,0,0-1.79-4.55A6,6,0,0,0,297.26,53.67Z" transform="translate(-3.06 -1.63)"/><path class="cls-2" d="M310.6,45.67a1.66,1.66,0,0,1,1.18,2.84,1.62,1.62,0,0,1-1.18.49,1.66,1.66,0,0,1-1.16-2.84A1.56,1.56,0,0,1,310.6,45.67Zm-1,6.46h2V67.82h-2Z" transform="translate(-3.06 -1.63)"/><path class="cls-2" d="M331.45,52.13V67.82h-2v-2.7a8.55,8.55,0,0,1-2.85,2.33,7.94,7.94,0,0,1-9.14-1.64,8.11,8.11,0,0,1-2.36-5.88,8,8,0,0,1,2.38-5.8,7.8,7.8,0,0,1,5.73-2.41,7.34,7.34,0,0,1,3.49.83A7.88,7.88,0,0,1,329.46,55V52.13Zm-8.07,1.54A6.09,6.09,0,0,0,318,56.83a6.37,6.37,0,0,0,0,6.34,6.28,6.28,0,0,0,2.28,2.35,6,6,0,0,0,3.08.84,6.28,6.28,0,0,0,3.14-.83,5.83,5.83,0,0,0,2.28-2.26,6.41,6.41,0,0,0,.8-3.22,6.27,6.27,0,0,0-1.79-4.55A6,6,0,0,0,323.38,53.67Z" transform="translate(-3.06 -1.63)"/></svg>